<?xml version="1.0" encoding="utf-8"?>
<!-- Generator: Adobe Illustrator 25.0.0, SVG Export Plug-In . SVG Version: 6.00 Build 0)  -->
<svg version="1.1" id="Camada_1" xmlns="http://www.w3.org/2000/svg" xmlns:xlink="http://www.w3.org/1999/xlink" x="0px" y="0px"
	 viewBox="0 0 303 251" style="enable-background:new 0 0 303 251;" xml:space="preserve">
<style type="text/css">
	.st0{fill:#FFD040;}
	.st1{fill:url(#XMLID_2_);}
	.st2{fill:url(#XMLID_3_);}
	.st3{fill:url(#XMLID_4_);}
	.st4{fill:url(#XMLID_5_);}
	.st5{fill:url(#XMLID_6_);}
	.st6{fill:url(#XMLID_7_);}
	.st7{fill:url(#XMLID_9_);}
	.st8{fill:url(#XMLID_10_);}
	.st9{fill:#00B2E3;}
</style>
<g id="XMLID_8_">
	<g id="XMLID_27_">
		<g id="XMLID_355_">
			<path id="XMLID_367_" class="st0" d="M83.19,223.8c0,0.94-0.14,1.92-0.33,3l-2.76,13.87h-5.86l2.72-13.73
				c0.14-0.7,0.19-1.36,0.19-1.92c0-2.9-1.59-4.54-5.01-4.54c-4.26,0-7.22,2.34-8.2,7.22l-2.62,12.98h-5.86l4.97-25.02h5.58
				l-0.56,2.76c2.3-2.06,5.29-3.05,8.62-3.05C79.58,215.37,83.19,218.32,83.19,223.8z"/>
			<path id="XMLID_364_" class="st0" d="M238.62,229.9h-19.87c0.09,3.98,2.39,6.14,7.22,6.14c2.86,0,5.48-0.94,7.21-2.58l2.44,4.08
				c-2.62,2.34-6.42,3.47-10.26,3.47c-7.54,0-12.32-4.36-12.32-11.01c0-8.48,6.04-14.62,14.43-14.62c6.93,0,11.53,4.12,11.53,10.96
				C238.99,227.6,238.85,228.82,238.62,229.9z M219.27,226.01h14.34c0.05-3.84-2.53-5.95-6.42-5.95
				C223.2,220.06,220.35,222.35,219.27,226.01z"/>
			<path id="XMLID_361_" class="st0" d="M280.36,226.33c0,8.53-6.09,14.67-14.06,14.67c-4.08,0-7.17-1.45-8.76-4.31l-0.8,3.98h-5.58
				l6.93-34.77h5.86l-2.39,12.09c2.06-1.69,4.69-2.62,7.78-2.62C275.48,215.37,280.36,219.4,280.36,226.33z M274.45,226.62
				c0-3.89-2.39-6.28-6.61-6.28c-4.97,0-8.62,3.84-8.62,9.37c0,3.89,2.39,6.28,6.61,6.28C270.8,235.99,274.45,232.14,274.45,226.62z
				"/>
			<path id="XMLID_358_" class="st0" d="M126.57,215.65l-4.97,25.02h-5.58l0.52-2.58c-2.11,1.87-4.87,2.9-8.15,2.9
				c-6.14,0-11.01-4.08-11.01-11.01c0-8.53,6.09-14.62,14.1-14.62c3.89,0,6.84,1.31,8.53,3.98l0.7-3.7H126.57z M118.51,226.62
				c0-3.89-2.39-6.28-6.61-6.28c-4.97,0-8.62,3.84-8.62,9.37c0,3.89,2.39,6.28,6.61,6.28C114.85,235.99,118.51,232.14,118.51,226.62
				z"/>
			<path id="XMLID_356_" class="st0" d="M205.27,215.65l-13.96,25.02h-5.76l-3.37-17.24l-9.79,17.24h-5.67l-4.59-25.02h5.34
				l3.19,18.41l10.45-18.41h5.01l3.33,18.41l10.31-18.41H205.27z"/>
		</g>
		<g id="XMLID_28_">
			<linearGradient id="XMLID_2_" gradientUnits="userSpaceOnUse" x1="75.2878" y1="199.6677" x2="75.2878" y2="141.8006">
				<stop  offset="0" style="stop-color:#36A9E1"/>
				<stop  offset="1" style="stop-color:#009FE3"/>
			</linearGradient>
			<path id="XMLID_298_" class="st1" d="M103.52,141.8H57.47c-4.28,0-7.97,3.02-8.82,7.21l-1.6,7.92H64l-8.51,42.74h8.12
				c6.62,0,12.32-4.67,13.61-11.17l6.29-31.57h16.95L103.52,141.8z"/>
			<linearGradient id="XMLID_3_" gradientUnits="userSpaceOnUse" x1="125.8805" y1="149.9195" x2="125.8805" y2="138.128">
				<stop  offset="0" style="stop-color:#36A9E1"/>
				<stop  offset="1" style="stop-color:#009FE3"/>
			</linearGradient>
			<path id="XMLID_124_" class="st2" d="M129.06,138.13H125c-2.83,0-5.53,1.16-7.47,3.21l-8.15,8.58h10.61l7-5.68l5.38,5.68h10.02
				l-4.58-7.04C135.89,139.92,132.59,138.13,129.06,138.13z"/>
			<linearGradient id="XMLID_4_" gradientUnits="userSpaceOnUse" x1="119.4386" y1="200.4942" x2="119.4386" y2="153.6223">
				<stop  offset="0" style="stop-color:#36A9E1"/>
				<stop  offset="1" style="stop-color:#009FE3"/>
			</linearGradient>
			<path id="XMLID_51_" class="st3" d="M125.04,186.21c-1.35,0.33-2.73,0.48-4.08,0.48c-4.88,0-7.85-1.49-8.68-5.29h31.66
				c0.58-2.4,0.99-5.04,0.99-7.85c0-11.66-8.51-19.92-22.98-19.92c-16.86,0-28.02,11.08-28.02,25.96c0,12.81,10,20.92,24.88,20.92
				c6.86,0,13.56-1.41,19.76-5.62l-3.1-4.52C133.16,186.98,129.02,185.25,125.04,186.21z M121.13,166.35c3.97,0,6.7,2.23,6.7,6.04
				h-14.8C114.27,168.92,116.83,166.35,121.13,166.35z"/>
			<linearGradient id="XMLID_5_" gradientUnits="userSpaceOnUse" x1="171.2777" y1="199.6677" x2="171.2777" y2="154.4488">
				<stop  offset="0" style="stop-color:#36A9E1"/>
				<stop  offset="1" style="stop-color:#009FE3"/>
			</linearGradient>
			<path id="XMLID_50_" class="st4" d="M203.56,154.45h-20.42l-8.93,9.59l-2.55-5.09c-1.38-2.75-4.19-4.5-7.27-4.5h-14.57
				l11.74,22.15L139,199.67h21.08l8.85-9.67l1.7,3.44c1.89,3.82,5.79,6.24,10.05,6.24h12.88l-11.9-22.4L203.56,154.45z"/>
			<linearGradient id="XMLID_6_" gradientUnits="userSpaceOnUse" x1="217.6187" y1="200.4942" x2="217.6187" y2="144.28">
				<stop  offset="0" style="stop-color:#36A9E1"/>
				<stop  offset="1" style="stop-color:#009FE3"/>
			</linearGradient>
			<path id="XMLID_32_" class="st5" d="M226.79,156.93l2.56-12.65h-10.48c-4.77,0-8.89,3.36-9.83,8.04l-0.93,4.61
				c-3.6,0-6.71,2.54-7.41,6.08l-1.51,7.56h6.28l-2.31,11.41c-0.33,1.57-0.5,3.06-0.5,4.46c0,9.01,6.45,14.05,16.53,14.05
				c4.38,0,8.76-0.74,12.24-2.65l-2.15-12.57c-1.4,0.66-2.64,1.07-4.13,1.07c-2.15,0-3.47-0.99-3.47-3.14
				c0-0.41,0.08-0.83,0.17-1.32l2.23-11.32c5.38,0,10.02-3.8,11.07-9.08l0.91-4.56H226.79z"/>
			<linearGradient id="XMLID_7_" gradientUnits="userSpaceOnUse" x1="256.5595" y1="152.9339" x2="256.5595" y2="138.2901">
				<stop  offset="0" style="stop-color:#36A9E1"/>
				<stop  offset="1" style="stop-color:#009FE3"/>
			</linearGradient>
			<path id="XMLID_30_" class="st6" d="M256.05,152.93c5.54,0,9.17-3.31,9.17-8.09c0-3.82-3.12-6.56-8.15-6.56
				c-5.54,0-9.17,3.37-9.17,7.83C247.9,149.94,251.02,152.93,256.05,152.93z"/>
			<linearGradient id="XMLID_9_" gradientUnits="userSpaceOnUse" x1="249.1405" y1="199.6677" x2="249.1405" y2="156.8257">
				<stop  offset="0" style="stop-color:#36A9E1"/>
				<stop  offset="1" style="stop-color:#009FE3"/>
			</linearGradient>
			<path id="XMLID_90_" class="st7" d="M251.21,156.83c-4.13,0-7.68,2.91-8.48,6.96l-7.17,35.88h8.77c5.72,0,10.64-4.04,11.76-9.64
				l6.63-33.2H251.21z"/>
			<linearGradient id="XMLID_10_" gradientUnits="userSpaceOnUse" x1="277.8895" y1="199.6677" x2="277.8895" y2="138.3288">
				<stop  offset="0" style="stop-color:#36A9E1"/>
				<stop  offset="1" style="stop-color:#009FE3"/>
			</linearGradient>
			<path id="XMLID_29_" class="st8" d="M283.54,138.33c-5.16,0-9.61,3.64-10.62,8.71l-10.5,52.63h10.05c5.02,0,9.34-3.54,10.32-8.47
				l10.55-52.87H283.54z"/>
		</g>
	</g>
	<path id="XMLID_25_" class="st9" d="M40.39,168.28c-11.12-5.68-18.03-17.07-18.03-29.73c0-18.37,14.64-33.31,32.63-33.31
		c2.99,0,6.01,0.44,8.99,1.31l2.6,0.76l0.31-2.69c2.09-18.07,18.35-31.7,37.82-31.7c20.98,0,38.05,15.95,38.05,35.57
		c0,3.06-0.46,6.19-1.37,9.32l-0.88,3.02l3.14-0.09c0.22-0.01,0.42-0.03,0.7-0.08c11.65,0,21.66,8.09,24.35,19.66
		c0.58,2.51,2.81,4.27,5.42,4.27c2.15,0,4.14-0.98,5.45-2.7c1.3-1.7,1.72-3.85,1.16-5.91c-3.46-12.59-13.05-22.53-25.27-26.35
		c0.01-0.38,0.01-0.76,0.01-1.14c0-24.1-19.24-44.74-44.18-47.84v-2.98c11.17-2.53,17.77-10.79,17.77-22.44
		c0-13.25-9.5-23.25-22.1-23.25c-13.06,0-24.1,10.84-24.1,23.67c0,2.42,1.3,4.72,3.4,6c2.08,1.27,4.65,1.36,6.86,0.22
		c2.38-1.22,3.85-3.61,3.85-6.22c0-5.12,4.72-9.61,10.11-9.61c4.81,0,8.17,3.78,8.17,9.19c0,5.41-4.25,9.19-10.33,9.19
		c-3.85,0-6.86,3.09-6.86,7.03v9.19c-19.1,2.36-34.99,14.65-41.28,31.93c-0.59-0.02-1.19-0.04-1.78-0.04
		c-25,0-45.34,20.64-45.34,46.01c0,17.61,10.26,33.9,26.14,41.51c0.8,0.38,1.65,0.57,2.51,0.57c0.89,0,1.78-0.21,2.61-0.62
		c1.65-0.82,2.82-2.33,3.19-4.13C44.72,172.85,43.2,169.72,40.39,168.28z"/>
</g>
</svg>
